<?xml version="1.0" encoding="UTF-8" standalone="no"?>
<!DOCTYPE svg PUBLIC "-//W3C//DTD SVG 1.1//EN"
 "http://www.w3.org/Graphics/SVG/1.1/DTD/svg11.dtd">
<!-- Generated by graphviz version 2.40.1 (20161225.0304)
 -->
<!-- Title: G Pages: 1 -->
<svg width="1106pt" height="1246pt"
 viewBox="0.00 0.00 1106.00 1246.15" xmlns="http://www.w3.org/2000/svg" xmlns:xlink="http://www.w3.org/1999/xlink">
<g id="graph0" class="graph" transform="scale(1 1) rotate(0) translate(4 1242.1475)">
<title>G</title>
<polygon fill="#ffffff" stroke="transparent" points="-4,4 -4,-1242.1475 1102,-1242.1475 1102,4 -4,4"/>
<text text-anchor="start" x="8" y="-1223.9475" font-family="Arial" font-weight="bold" font-size="14.00" fill="#000000">App Map &amp; Flow: </text>
<text text-anchor="start" x="118.4893" y="-1223.9475" font-family="Arial" font-size="14.00" fill="#000000"> </text>
<text text-anchor="start" x="122.3789" y="-1223.9475" font-family="Arial" font-weight="bold" font-size="14.00" fill="#ffd700">lemon</text>
<text text-anchor="start" x="160.5098" y="-1223.9475" font-family="Arial" font-weight="bold" font-size="14.00" fill="#9acd32"> cucumber</text>
<g id="clust2" class="cluster">
<title>cluster_0</title>
<polygon fill="none" stroke="#c0c0c0" points="293,-681.3945 293,-1135.7891 493,-1135.7891 493,-681.3945 293,-681.3945"/>
<text text-anchor="start" x="457.752" y="-1121.5891" font-family="Arial" font-style="italic" font-size="14.00" fill="#c0c0c0">auth</text>
</g>
<g id="clust4" class="cluster">
<title>cluster_2</title>
<polygon fill="none" stroke="#c0c0c0" points="8,-8 8,-587.3945 378,-587.3945 378,-8 8,-8"/>
<text text-anchor="start" x="177.8276" y="-17.8986" font-family="Arial" font-style="italic" font-size="14.00" fill="#c0c0c0">main</text>
</g>
<g id="clust5" class="cluster">
<title>cluster_3</title>
<polygon fill="none" stroke="#c0c0c0" points="386,-511.2959 386,-587.3945 588,-587.3945 588,-511.2959 386,-511.2959"/>
<text text-anchor="start" x="465.9863" y="-521.1945" font-family="Arial" font-style="italic" font-size="14.00" fill="#c0c0c0">journal</text>
</g>
<g id="clust6" class="cluster">
<title>cluster_4</title>
<polygon fill="none" stroke="#c0c0c0" points="628,-378.1973 628,-587.3945 798,-587.3945 798,-378.1973 628,-378.1973"/>
<text text-anchor="start" x="679.1587" y="-388.0959" font-family="Arial" font-style="italic" font-size="14.00" fill="#c0c0c0">community</text>
</g>
<g id="clust7" class="cluster">
<title>cluster_5</title>
<polygon fill="none" stroke="#c0c0c0" points="806,-378.1973 806,-587.3945 1090,-587.3945 1090,-378.1973 806,-378.1973"/>
<text text-anchor="start" x="923.876" y="-388.0959" font-family="Arial" font-style="italic" font-size="14.00" fill="#c0c0c0">settings</text>
</g>
<!-- app -->
<g id="node1" class="node">
<title>app</title>
<polygon fill="none" stroke="#000000" points="381.86,-1202.3283 342.14,-1202.3283 342.14,-1162.6082 381.86,-1162.6082 381.86,-1202.3283"/>
<polyline fill="none" stroke="#000000" points="354.14,-1202.3283 342.14,-1190.3283 "/>
<polyline fill="none" stroke="#000000" points="342.14,-1174.6082 354.14,-1162.6082 "/>
<polyline fill="none" stroke="#000000" points="369.86,-1162.6082 381.86,-1174.6082 "/>
<polyline fill="none" stroke="#000000" points="381.86,-1190.3283 369.86,-1202.3283 "/>
<text text-anchor="middle" x="362" y="-1179.3176" font-family="Arial" font-size="14.00" fill="#000000">app</text>
</g>
<!-- auth -->
<g id="node2" class="node">
<title>auth</title>
<polygon fill="none" stroke="#000000" points="362,-1103.6904 313.3487,-1085.6904 362,-1067.6904 410.6513,-1085.6904 362,-1103.6904"/>
<text text-anchor="middle" x="362" y="-1082.5397" font-family="Arial" font-size="14.00" fill="#000000">auth?</text>
</g>
<!-- app&#45;&gt;auth -->
<g id="edge1" class="edge">
<title>app&#45;&gt;auth</title>
<path fill="none" stroke="#000000" d="M362,-1162.4158C362,-1148.3808 362,-1129.4352 362,-1113.8822"/>
<polygon fill="#000000" stroke="#000000" points="365.5001,-1113.7588 362,-1103.7588 358.5001,-1113.7588 365.5001,-1113.7588"/>
</g>
<!-- mode -->
<g id="node3" class="node">
<title>mode</title>
<polygon fill="none" stroke="#000000" points="429,-977.5918 373.0528,-959.5918 429,-941.5918 484.9472,-959.5918 429,-977.5918"/>
<text text-anchor="middle" x="429" y="-956.4411" font-family="Arial" font-size="14.00" fill="#000000">mode?</text>
</g>
<!-- auth&#45;&gt;mode -->
<g id="edge5" class="edge">
<title>auth&#45;&gt;mode</title>
<path fill="none" stroke="#000000" d="M370.2155,-1070.2283C381.6179,-1048.7681 402.3637,-1009.7231 415.9118,-984.2247"/>
<polygon fill="#000000" stroke="#000000" points="419.1159,-985.6536 420.7173,-975.1804 412.9343,-982.3691 419.1159,-985.6536"/>
<text text-anchor="middle" x="402.6689" y="-1019.4904" font-family="Arial" font-size="14.00" fill="#000000">Y</text>
</g>
<!-- init -->
<g id="node4" class="node">
<title>init</title>
<ellipse fill="none" stroke="#000000" cx="328" cy="-959.5918" rx="27" ry="18"/>
<text text-anchor="middle" x="328" y="-956.4411" font-family="Arial" font-size="14.00" fill="#000000">init</text>
</g>
<!-- auth&#45;&gt;init -->
<g id="edge2" class="edge">
<title>auth&#45;&gt;init</title>
<path fill="none" stroke="#000000" d="M357.5551,-1069.2052C351.9546,-1048.4344 342.2468,-1012.43 335.4916,-987.3765"/>
<polygon fill="#000000" stroke="#000000" points="338.8688,-986.4572 332.8861,-977.7132 332.1102,-988.2796 338.8688,-986.4572"/>
<text text-anchor="middle" x="351.0552" y="-1019.4904" font-family="Arial" font-size="14.00" fill="#000000">N</text>
</g>
<!-- set_mode -->
<g id="node5" class="node">
<title>set_mode</title>
<ellipse fill="none" stroke="#000000" cx="351" cy="-833.4932" rx="49.5528" ry="18"/>
<text text-anchor="middle" x="351" y="-830.3425" font-family="Arial" font-size="14.00" fill="#000000">set mode</text>
</g>
<!-- mode&#45;&gt;set_mode -->
<g id="edge6" class="edge">
<title>mode&#45;&gt;set_mode</title>
<path fill="none" stroke="#000000" d="M419.4357,-944.1296C406.4651,-923.1607 383.1093,-885.4026 367.333,-859.8979"/>
<polygon fill="#000000" stroke="#000000" points="370.1341,-857.7729 361.8969,-851.1096 364.1809,-861.4553 370.1341,-857.7729"/>
<text text-anchor="middle" x="398.0552" y="-893.3918" font-family="Arial" font-size="14.00" fill="#000000">N</text>
</g>
<!-- home -->
<g id="node7" class="node">
<title>home</title>
<polygon fill="none" stroke="#000000" points="425,-652.3945 371,-652.3945 371,-616.3945 425,-616.3945 425,-652.3945"/>
<text text-anchor="middle" x="398" y="-631.2438" font-family="Arial" font-size="14.00" fill="#000000">home</text>
</g>
<!-- mode&#45;&gt;home -->
<g id="edge7" class="edge">
<title>mode&#45;&gt;home</title>
<path fill="none" stroke="#000000" d="M429,-941.3821C429,-928.7893 429,-911.648 429,-896.5425 429,-896.5425 429,-896.5425 429,-707.3945 429,-691.3289 422.5602,-674.7434 415.5509,-661.4493"/>
<polygon fill="#000000" stroke="#000000" points="418.403,-659.3828 410.4303,-652.4053 412.3116,-662.8318 418.403,-659.3828"/>
<text text-anchor="middle" x="433.6689" y="-786.2932" font-family="Arial" font-size="14.00" fill="#000000">Y</text>
</g>
<!-- init&#45;&gt;set_mode -->
<g id="edge3" class="edge">
<title>init&#45;&gt;set_mode</title>
<path fill="none" stroke="#000000" d="M331.2953,-941.5249C335.104,-920.6437 341.418,-886.027 345.8705,-861.6158"/>
<polygon fill="#000000" stroke="#000000" points="349.3595,-861.9923 347.7108,-851.5265 342.4731,-860.7362 349.3595,-861.9923"/>
</g>
<!-- intro -->
<g id="node6" class="node">
<title>intro</title>
<polygon fill="none" stroke="#000000" points="395,-725.3945 341,-725.3945 341,-689.3945 395,-689.3945 395,-725.3945"/>
<text text-anchor="middle" x="368" y="-704.2438" font-family="Arial" font-size="14.00" fill="#000000">intro</text>
</g>
<!-- set_mode&#45;&gt;intro -->
<g id="edge4" class="edge">
<title>set_mode&#45;&gt;intro</title>
<path fill="none" stroke="#000000" d="M353.4357,-815.4263C356.2508,-794.545 360.9176,-759.9284 364.2086,-735.5171"/>
<polygon fill="#000000" stroke="#000000" points="367.7013,-735.8059 365.5688,-725.4279 360.7641,-734.8706 367.7013,-735.8059"/>
</g>
<!-- intro&#45;&gt;home -->
<g id="edge8" class="edge">
<title>intro&#45;&gt;home</title>
<path fill="none" stroke="#000000" stroke-dasharray="1,5" d="M375.4157,-689.3496C378.8052,-681.1019 382.8958,-671.1481 386.6591,-661.9907"/>
<polygon fill="#000000" stroke="#000000" points="390.0017,-663.0647 390.5656,-652.4849 383.5271,-660.4039 390.0017,-663.0647"/>
</g>
<!-- journal -->
<g id="node8" class="node">
<title>journal</title>
<polygon fill="none" stroke="#000000" points="575.0274,-652.3945 516.9726,-652.3945 516.9726,-616.3945 575.0274,-616.3945 575.0274,-652.3945"/>
<text text-anchor="middle" x="546" y="-631.2438" font-family="Arial" font-size="14.00" fill="#000000">journal</text>
</g>
<!-- home&#45;&gt;journal -->
<g id="edge9" class="edge">
<title>home&#45;&gt;journal</title>
<path fill="none" stroke="#000000" d="M435.1868,-634.3945C458.9723,-634.3945 482.7577,-634.3945 506.5432,-634.3945"/>
<polygon fill="#000000" stroke="#000000" points="435.1719,-630.8946 425.1719,-634.3945 435.1718,-637.8946 435.1719,-630.8946"/>
<polygon fill="#000000" stroke="#000000" points="506.737,-637.8946 516.7369,-634.3945 506.7369,-630.8946 506.737,-637.8946"/>
</g>
<!-- categories -->
<g id="node11" class="node">
<title>categories</title>
<polygon fill="none" stroke="#000000" points="279.9231,-579.3945 190.0769,-579.3945 158.0791,-543.3945 311.9209,-543.3945 279.9231,-579.3945"/>
<text text-anchor="middle" x="235" y="-558.2438" font-family="Arial" font-size="14.00" fill="#000000">categories</text>
</g>
<!-- home&#45;&gt;categories -->
<g id="edge12" class="edge">
<title>home&#45;&gt;categories</title>
<path fill="none" stroke="#000000" d="M370.7175,-622.176C347.2672,-611.6737 312.8569,-596.2629 284.5535,-583.5872"/>
<polygon fill="#000000" stroke="#000000" points="285.7708,-580.2975 275.2137,-579.4043 282.9096,-586.686 285.7708,-580.2975"/>
</g>
<!-- almanac -->
<g id="node9" class="node">
<title>almanac</title>
<polygon fill="none" stroke="#000000" points="580.417,-579.3945 511.583,-579.3945 511.583,-543.3945 580.417,-543.3945 580.417,-579.3945"/>
<text text-anchor="middle" x="546" y="-558.2438" font-family="Arial" font-size="14.00" fill="#000000">almanac</text>
</g>
<!-- journal&#45;&gt;almanac -->
<g id="edge26" class="edge">
<title>journal&#45;&gt;almanac</title>
<path fill="none" stroke="#000000" d="M546,-616.3496C546,-608.2774 546,-598.5709 546,-589.5763"/>
<polygon fill="#000000" stroke="#000000" points="549.5001,-589.4849 546,-579.4849 542.5001,-589.4849 549.5001,-589.4849"/>
</g>
<!-- give_or_get -->
<g id="node17" class="node">
<title>give_or_get</title>
<ellipse fill="none" stroke="#000000" cx="197" cy="-295.1973" rx="60.0235" ry="18"/>
<text text-anchor="middle" x="197" y="-292.0466" font-family="Arial" font-size="14.00" fill="#000000">give_or_get</text>
</g>
<!-- journal&#45;&gt;give_or_get -->
<g id="edge28" class="edge">
<title>journal&#45;&gt;give_or_get</title>
<path fill="none" stroke="#000000" stroke-dasharray="1,5" d="M574.0975,-616.2185C590.502,-603.1974 608,-584.0083 608,-561.3945 608,-561.3945 608,-561.3945 608,-350.6973 608,-316.7121 384.4504,-302.6682 267.0899,-297.637"/>
<polygon fill="#000000" stroke="#000000" points="266.9003,-294.1261 256.7629,-297.2057 266.6082,-301.12 266.9003,-294.1261"/>
</g>
<!-- community -->
<g id="node21" class="node">
<title>community</title>
<polygon fill="none" stroke="#000000" points="754.6832,-652.3945 671.3168,-652.3945 671.3168,-616.3945 754.6832,-616.3945 754.6832,-652.3945"/>
<text text-anchor="middle" x="713" y="-631.2438" font-family="Arial" font-size="14.00" fill="#000000">community</text>
</g>
<!-- journal&#45;&gt;community -->
<g id="edge10" class="edge">
<title>journal&#45;&gt;community</title>
<path fill="none" stroke="#000000" d="M585.1756,-634.3945C610.4994,-634.3945 635.8231,-634.3945 661.1468,-634.3945"/>
<polygon fill="#000000" stroke="#000000" points="585.0293,-630.8946 575.0293,-634.3945 585.0293,-637.8946 585.0293,-630.8946"/>
<polygon fill="#000000" stroke="#000000" points="661.2316,-637.8946 671.2315,-634.3945 661.2315,-630.8946 661.2316,-637.8946"/>
</g>
<!-- log_entry -->
<g id="node25" class="node">
<title>log_entry</title>
<ellipse fill="none" stroke="#000000" cx="444" cy="-561.3945" rx="49.562" ry="18"/>
<text text-anchor="middle" x="444" y="-558.2438" font-family="Arial" font-size="14.00" fill="#000000">log_entry</text>
</g>
<!-- journal&#45;&gt;log_entry -->
<g id="edge27" class="edge">
<title>journal&#45;&gt;log_entry</title>
<path fill="none" stroke="#000000" d="M520.7865,-616.3496C506.8795,-606.3965 489.501,-593.959 474.7957,-583.4346"/>
<polygon fill="#000000" stroke="#000000" points="476.6618,-580.4661 466.4928,-577.4923 472.5878,-586.1585 476.6618,-580.4661"/>
</g>
<!-- settings -->
<g id="node10" class="node">
<title>settings</title>
<polygon fill="none" stroke="#000000" points="882.2485,-652.3945 817.7515,-652.3945 817.7515,-616.3945 882.2485,-616.3945 882.2485,-652.3945"/>
<text text-anchor="middle" x="850" y="-631.2438" font-family="Arial" font-size="14.00" fill="#000000">settings</text>
</g>
<!-- preferences -->
<g id="node26" class="node">
<title>preferences</title>
<ellipse fill="none" stroke="#000000" cx="965" cy="-561.3945" rx="60.5541" ry="18"/>
<text text-anchor="middle" x="965" y="-558.2438" font-family="Arial" font-size="14.00" fill="#000000">preferences</text>
</g>
<!-- settings&#45;&gt;preferences -->
<g id="edge32" class="edge">
<title>settings&#45;&gt;preferences</title>
<path fill="none" stroke="#000000" d="M878.427,-616.3496C894.1407,-606.3748 913.7856,-593.9045 930.3881,-583.3656"/>
<polygon fill="#000000" stroke="#000000" points="932.6875,-586.0516 939.2544,-577.7374 928.936,-580.1417 932.6875,-586.0516"/>
</g>
<!-- logout -->
<g id="node27" class="node">
<title>logout</title>
<ellipse fill="none" stroke="#000000" cx="850" cy="-561.3945" rx="36.3831" ry="18"/>
<text text-anchor="middle" x="850" y="-558.2438" font-family="Arial" font-size="14.00" fill="#000000">logout</text>
</g>
<!-- settings&#45;&gt;logout -->
<g id="edge33" class="edge">
<title>settings&#45;&gt;logout</title>
<path fill="none" stroke="#000000" d="M850,-616.3496C850,-608.2774 850,-598.5709 850,-589.5763"/>
<polygon fill="#000000" stroke="#000000" points="853.5001,-589.4849 850,-579.4849 846.5001,-589.4849 853.5001,-589.4849"/>
</g>
<!-- food -->
<g id="node12" class="node">
<title>food</title>
<polygon fill="none" stroke="#000000" points="370,-446.2959 316,-446.2959 316,-410.2959 370,-410.2959 370,-446.2959"/>
<text text-anchor="middle" x="343" y="-425.1452" font-family="Arial" font-size="14.00" fill="#000000">food</text>
</g>
<!-- categories&#45;&gt;food -->
<g id="edge13" class="edge">
<title>categories&#45;&gt;food</title>
<path fill="none" stroke="#000000" d="M249.7905,-543.1668C268.4526,-520.1677 300.6704,-480.4627 321.9093,-454.288"/>
<polygon fill="#000000" stroke="#000000" points="324.805,-456.274 328.3881,-446.3035 319.3694,-451.8634 324.805,-456.274"/>
</g>
<!-- plants -->
<g id="node13" class="node">
<title>plants</title>
<polygon fill="none" stroke="#000000" points="70,-446.2959 16,-446.2959 16,-410.2959 70,-410.2959 70,-446.2959"/>
<text text-anchor="middle" x="43" y="-425.1452" font-family="Arial" font-size="14.00" fill="#000000">plants</text>
</g>
<!-- categories&#45;&gt;plants -->
<g id="edge14" class="edge">
<title>categories&#45;&gt;plants</title>
<path fill="none" stroke="#000000" d="M208.7058,-543.1668C174.667,-519.5703 115.2611,-478.3889 77.5927,-452.2763"/>
<polygon fill="#000000" stroke="#000000" points="79.1891,-449.1243 68.9766,-446.3035 75.201,-454.8771 79.1891,-449.1243"/>
</g>
<!-- goods -->
<g id="node14" class="node">
<title>goods</title>
<polygon fill="none" stroke="#000000" points="142.1447,-446.2959 87.8553,-446.2959 87.8553,-410.2959 142.1447,-410.2959 142.1447,-446.2959"/>
<text text-anchor="middle" x="115" y="-425.1452" font-family="Arial" font-size="14.00" fill="#000000">goods</text>
</g>
<!-- categories&#45;&gt;goods -->
<g id="edge15" class="edge">
<title>categories&#45;&gt;goods</title>
<path fill="none" stroke="#000000" d="M218.5661,-543.1668C197.7407,-520.0681 161.7227,-480.1186 138.1284,-453.9488"/>
<polygon fill="#000000" stroke="#000000" points="140.5311,-451.3869 131.2354,-446.3035 135.3321,-456.0742 140.5311,-451.3869"/>
</g>
<!-- sweat -->
<g id="node15" class="node">
<title>sweat</title>
<polygon fill="none" stroke="#000000" points="214,-446.2959 160,-446.2959 160,-410.2959 214,-410.2959 214,-446.2959"/>
<text text-anchor="middle" x="187" y="-425.1452" font-family="Arial" font-size="14.00" fill="#000000">sweat</text>
</g>
<!-- categories&#45;&gt;sweat -->
<g id="edge16" class="edge">
<title>categories&#45;&gt;sweat</title>
<path fill="none" stroke="#000000" d="M228.4265,-543.1668C220.3117,-520.6655 206.4302,-482.1737 196.9934,-456.0064"/>
<polygon fill="#000000" stroke="#000000" points="200.1791,-454.5231 193.4942,-446.3035 193.5943,-456.8978 200.1791,-454.5231"/>
</g>
<!-- gardens -->
<g id="node16" class="node">
<title>gardens</title>
<polygon fill="none" stroke="#000000" points="298.094,-446.2959 231.906,-446.2959 231.906,-410.2959 298.094,-410.2959 298.094,-446.2959"/>
<text text-anchor="middle" x="265" y="-425.1452" font-family="Arial" font-size="14.00" fill="#000000">gardens</text>
</g>
<!-- categories&#45;&gt;gardens -->
<g id="edge17" class="edge">
<title>categories&#45;&gt;gardens</title>
<path fill="none" stroke="#000000" d="M239.1085,-543.1668C244.1577,-520.7651 252.7794,-482.5141 258.6757,-456.3545"/>
<polygon fill="#000000" stroke="#000000" points="262.1566,-456.8284 260.9412,-446.3035 255.3279,-455.2891 262.1566,-456.8284"/>
</g>
<!-- food&#45;&gt;give_or_get -->
<g id="edge18" class="edge">
<title>food&#45;&gt;give_or_get</title>
<path fill="none" stroke="#000000" d="M326.1814,-401.7728C320.5479,-393.7958 313.9256,-385.2862 307,-378.1973 284.1704,-354.8291 254.3975,-332.7746 231.5845,-317.2813"/>
<polygon fill="#000000" stroke="#000000" points="323.3506,-403.8341 331.8738,-410.1273 329.1355,-399.8925 323.3506,-403.8341"/>
<polygon fill="#000000" stroke="#000000" points="233.4678,-314.3302 223.2109,-311.6756 229.5736,-320.1471 233.4678,-314.3302"/>
</g>
<!-- plants&#45;&gt;give_or_get -->
<g id="edge19" class="edge">
<title>plants&#45;&gt;give_or_get</title>
<path fill="none" stroke="#000000" d="M59.6749,-401.6301C65.3021,-393.6468 71.957,-385.1696 79,-378.1973 103.4133,-354.0291 135.5383,-331.9332 160.104,-316.6263"/>
<polygon fill="#000000" stroke="#000000" points="56.7129,-399.7621 54.0024,-410.0044 62.5085,-403.6879 56.7129,-399.7621"/>
<polygon fill="#000000" stroke="#000000" points="162.0894,-319.5145 168.7842,-311.3028 158.4298,-313.5473 162.0894,-319.5145"/>
</g>
<!-- goods&#45;&gt;give_or_get -->
<g id="edge20" class="edge">
<title>goods&#45;&gt;give_or_get</title>
<path fill="none" stroke="#000000" d="M131.5904,-401.3672C145.8739,-378.1828 166.3728,-344.9099 180.6006,-321.816"/>
<polygon fill="#000000" stroke="#000000" points="128.4953,-399.7184 126.2298,-410.0682 134.455,-403.3901 128.4953,-399.7184"/>
<polygon fill="#000000" stroke="#000000" points="183.6403,-323.5547 185.9058,-313.2048 177.6806,-319.8829 183.6403,-323.5547"/>
</g>
<!-- sweat&#45;&gt;give_or_get -->
<g id="edge21" class="edge">
<title>sweat&#45;&gt;give_or_get</title>
<path fill="none" stroke="#000000" d="M189.1275,-399.9793C190.8216,-377.4304 193.1816,-346.0194 194.8751,-323.4796"/>
<polygon fill="#000000" stroke="#000000" points="185.6286,-399.834 188.3695,-410.0682 192.609,-400.3585 185.6286,-399.834"/>
<polygon fill="#000000" stroke="#000000" points="198.3879,-323.439 195.6471,-313.2048 191.4076,-322.9145 198.3879,-323.439"/>
</g>
<!-- gardens&#45;&gt;give_or_get -->
<g id="edge22" class="edge">
<title>gardens&#45;&gt;give_or_get</title>
<path fill="none" stroke="#000000" d="M251.066,-401.0224C239.3271,-378.0455 222.6189,-345.3419 210.8919,-322.3883"/>
<polygon fill="#000000" stroke="#000000" points="248.021,-402.7554 255.6875,-410.0682 254.2546,-399.5707 248.021,-402.7554"/>
<polygon fill="#000000" stroke="#000000" points="213.8665,-320.5176 206.2001,-313.2048 207.6329,-323.7024 213.8665,-320.5176"/>
</g>
<!-- match_results -->
<g id="node18" class="node">
<title>match_results</title>
<polygon fill="none" stroke="#000000" points="197,-202.1973 123.9972,-184.1973 197,-166.1973 270.0028,-184.1973 197,-202.1973"/>
<text text-anchor="middle" x="197" y="-181.0466" font-family="Arial" font-size="14.00" fill="#000000">matches?</text>
</g>
<!-- give_or_get&#45;&gt;match_results -->
<g id="edge23" class="edge">
<title>give_or_get&#45;&gt;match_results</title>
<path fill="none" stroke="#000000" d="M197,-276.8679C197,-259.4345 197,-232.9455 197,-212.7462"/>
<polygon fill="#000000" stroke="#000000" points="200.5001,-212.5539 197,-202.5539 193.5001,-212.5539 200.5001,-212.5539"/>
</g>
<!-- match_detail -->
<g id="node19" class="node">
<title>match_detail</title>
<polygon fill="none" stroke="#000000" points="130.8797,-76.0986 35.1203,-76.0986 35.1203,-40.0986 130.8797,-40.0986 130.8797,-76.0986"/>
<text text-anchor="middle" x="83" y="-54.9479" font-family="Arial" font-size="14.00" fill="#000000">match_detail</text>
</g>
<!-- match_results&#45;&gt;match_detail -->
<g id="edge24" class="edge">
<title>match_results&#45;&gt;match_detail</title>
<path fill="none" stroke="#000000" d="M183.475,-169.2369C164.4468,-148.1893 129.5044,-109.5384 106.259,-83.8261"/>
<polygon fill="#000000" stroke="#000000" points="108.7536,-81.3664 99.451,-76.2956 103.561,-86.0608 108.7536,-81.3664"/>
<text text-anchor="middle" x="149.6689" y="-117.9973" font-family="Arial" font-size="14.00" fill="#000000">Y</text>
</g>
<!-- match_alternate -->
<g id="node20" class="node">
<title>match_alternate</title>
<polygon fill="none" stroke="#000000" points="265.3932,-76.0986 148.6068,-76.0986 148.6068,-40.0986 265.3932,-40.0986 265.3932,-76.0986"/>
<text text-anchor="middle" x="207" y="-54.9479" font-family="Arial" font-size="14.00" fill="#000000">match_alternate</text>
</g>
<!-- match_results&#45;&gt;match_alternate -->
<g id="edge25" class="edge">
<title>match_results&#45;&gt;match_alternate</title>
<path fill="none" stroke="#000000" d="M198.4115,-166.3979C200.0624,-145.5814 202.8162,-110.856 204.7598,-86.3471"/>
<polygon fill="#000000" stroke="#000000" points="208.2617,-86.4612 205.5633,-76.2158 201.2836,-85.9078 208.2617,-86.4612"/>
<text text-anchor="middle" x="207.0552" y="-117.9973" font-family="Arial" font-size="14.00" fill="#000000">N</text>
</g>
<!-- community&#45;&gt;settings -->
<g id="edge11" class="edge">
<title>community&#45;&gt;settings</title>
<path fill="none" stroke="#000000" d="M765.0593,-634.3945C779.1595,-634.3945 793.2598,-634.3945 807.36,-634.3945"/>
<polygon fill="#000000" stroke="#000000" points="764.7422,-630.8946 754.7422,-634.3945 764.7422,-637.8946 764.7422,-630.8946"/>
<polygon fill="#000000" stroke="#000000" points="807.6273,-637.8946 817.6272,-634.3945 807.6272,-630.8946 807.6273,-637.8946"/>
</g>
<!-- resources -->
<g id="node22" class="node">
<title>resources</title>
<polygon fill="none" stroke="#000000" points="756.2021,-579.3945 669.7979,-579.3945 639.026,-543.3945 786.974,-543.3945 756.2021,-579.3945"/>
<text text-anchor="middle" x="713" y="-558.2438" font-family="Arial" font-size="14.00" fill="#000000">resources</text>
</g>
<!-- community&#45;&gt;resources -->
<g id="edge29" class="edge">
<title>community&#45;&gt;resources</title>
<path fill="none" stroke="#000000" d="M713,-616.3496C713,-608.2774 713,-598.5709 713,-589.5763"/>
<polygon fill="#000000" stroke="#000000" points="716.5001,-589.4849 713,-579.4849 709.5001,-589.4849 716.5001,-589.4849"/>
</g>
<!-- local_resources -->
<g id="node23" class="node">
<title>local_resources</title>
<polygon fill="none" stroke="#000000" points="717.8592,-446.2959 636.1408,-446.2959 636.1408,-410.2959 717.8592,-410.2959 717.8592,-446.2959"/>
<text text-anchor="middle" x="677" y="-425.1452" font-family="Arial" font-size="14.00" fill="#000000">in my area</text>
</g>
<!-- resources&#45;&gt;local_resources -->
<g id="edge30" class="edge">
<title>resources&#45;&gt;local_resources</title>
<path fill="none" stroke="#000000" d="M708.0698,-543.1668C701.9838,-520.6655 691.5727,-482.1737 684.495,-456.0064"/>
<polygon fill="#000000" stroke="#000000" points="687.8602,-455.0428 681.8706,-446.3035 681.103,-456.8705 687.8602,-455.0428"/>
</g>
<!-- other_resources -->
<g id="node24" class="node">
<title>other_resources</title>
<polygon fill="none" stroke="#000000" points="790,-446.2959 736,-446.2959 736,-410.2959 790,-410.2959 790,-446.2959"/>
<text text-anchor="middle" x="763" y="-425.1452" font-family="Arial" font-size="14.00" fill="#000000">other</text>
</g>
<!-- resources&#45;&gt;other_resources -->
<g id="edge31" class="edge">
<title>resources&#45;&gt;other_resources</title>
<path fill="none" stroke="#000000" d="M719.8474,-543.1668C728.3003,-520.6655 742.7602,-482.1737 752.5902,-456.0064"/>
<polygon fill="#000000" stroke="#000000" points="755.995,-456.8956 756.2353,-446.3035 749.4421,-454.4339 755.995,-456.8956"/>
</g>
<!-- user_mode -->
<g id="node28" class="node">
<title>user_mode</title>
<ellipse fill="none" stroke="#000000" cx="872" cy="-428.2959" rx="57.8185" ry="18"/>
<text text-anchor="middle" x="872" y="-425.1452" font-family="Arial" font-size="14.00" fill="#000000">user_mode</text>
</g>
<!-- preferences&#45;&gt;user_mode -->
<g id="edge34" class="edge">
<title>preferences&#45;&gt;user_mode</title>
<path fill="none" stroke="#000000" d="M952.6503,-543.7201C936.6693,-520.8486 908.6947,-480.8121 890.2569,-454.4245"/>
<polygon fill="#000000" stroke="#000000" points="892.9975,-452.236 884.4008,-446.0435 887.2594,-456.2454 892.9975,-452.236"/>
</g>
<!-- user_location -->
<g id="node29" class="node">
<title>user_location</title>
<ellipse fill="none" stroke="#000000" cx="1015" cy="-428.2959" rx="66.6334" ry="18"/>
<text text-anchor="middle" x="1015" y="-425.1452" font-family="Arial" font-size="14.00" fill="#000000">user_location</text>
</g>
<!-- preferences&#45;&gt;user_location -->
<g id="edge35" class="edge">
<title>preferences&#45;&gt;user_location</title>
<path fill="none" stroke="#000000" d="M971.7432,-543.4443C980.205,-520.9191 994.8025,-482.0611 1004.6744,-455.7823"/>
<polygon fill="#000000" stroke="#000000" points="1007.9636,-456.979 1008.2039,-446.3869 1001.4108,-454.5173 1007.9636,-456.979"/>
</g>
</g>
</svg>
